<?xml version="1.0"?>
<svg xmlns="http://www.w3.org/2000/svg" xmlns:xlink="http://www.w3.org/1999/xlink" xmlns:svgjs="http://svgjs.com/svgjs" version="1.1" width="512" height="512" x="0" y="0" viewBox="0 0 496 496" style="enable-background:new 0 0 512 512" xml:space="preserve" class=""><g>
<path xmlns="http://www.w3.org/2000/svg" style="" d="M432,465.6c0,16.8-13.6,30.4-30.4,30.4H94.4C77.6,496,64,482.4,64,465.6V30.4C64,13.6,77.6,0,94.4,0  h307.2C418.4,0,432,13.6,432,30.4V465.6z" fill="#083b5e" data-original="#08446d"/>
<path xmlns="http://www.w3.org/2000/svg" style="" d="M96,0h305.6C418.4,0,432,13.6,432,30.4v434.4c0,16.8-13.6,30.4-30.4,30.4H96" fill="#00233f" data-original="#00233f" class=""/>
<path xmlns="http://www.w3.org/2000/svg" style="" d="M400,415.2c0,13.6-9.6,24.8-24,24.8H120c-13.6,0-24-11.2-24-24.8V52c0-13.6,9.6-28,24-28h256  c13.6,0,24,14.4,24,28V415.2z" fill="#deeef9" data-original="#deeef9"/>
<path xmlns="http://www.w3.org/2000/svg" style="" d="M120,24h256c13.6,0,24,14.4,24,28v362.4c0,13.6-9.6,24.8-24,24.8" fill="#c6dae5" data-original="#c6dae5"/>
<rect xmlns="http://www.w3.org/2000/svg" x="128" y="88" style="" width="72" height="96" fill="#00233f" data-original="#00233f" class=""/>
<g xmlns="http://www.w3.org/2000/svg">
	<rect x="216" y="96" style="" width="152" height="8" fill="#083b5e" data-original="#08446d"/>
	<rect x="216" y="120" style="" width="152" height="8" fill="#083b5e" data-original="#08446d"/>
	<rect x="216" y="144" style="" width="152" height="8" fill="#083b5e" data-original="#08446d"/>
	<rect x="216" y="168" style="" width="96" height="8" fill="#083b5e" data-original="#08446d"/>
	<circle style="" cx="216.8" cy="60" r="5.6" fill="#083b5e" data-original="#08446d"/>
	<circle style="" cx="248" cy="60" r="5.6" fill="#083b5e" data-original="#08446d"/>
	<circle style="" cx="279.2" cy="60" r="5.6" fill="#083b5e" data-original="#08446d"/>
</g>
<rect xmlns="http://www.w3.org/2000/svg" x="128" y="216" style="" width="240" height="48" fill="#23c181" data-original="#23c181"/>
<g xmlns="http://www.w3.org/2000/svg">
	<rect x="128" y="288" style="" width="32" height="120" fill="#f44d3b" data-original="#f44d3b" class=""/>
	<rect x="184" y="312" style="" width="24" height="96" fill="#f44d3b" data-original="#f44d3b" class=""/>
	<rect x="232" y="344" style="" width="32" height="64" fill="#f44d3b" data-original="#f44d3b" class=""/>
	<rect x="288" y="328" style="" width="24" height="80" fill="#f44d3b" data-original="#f44d3b" class=""/>
	<rect x="336" y="360" style="" width="32" height="48" fill="#f44d3b" data-original="#f44d3b" class=""/>
	<circle style="" cx="248" cy="467.2" r="12.8" fill="#f44d3b" data-original="#f44d3b" class=""/>
</g>
<g xmlns="http://www.w3.org/2000/svg">
</g>
<g xmlns="http://www.w3.org/2000/svg">
</g>
<g xmlns="http://www.w3.org/2000/svg">
</g>
<g xmlns="http://www.w3.org/2000/svg">
</g>
<g xmlns="http://www.w3.org/2000/svg">
</g>
<g xmlns="http://www.w3.org/2000/svg">
</g>
<g xmlns="http://www.w3.org/2000/svg">
</g>
<g xmlns="http://www.w3.org/2000/svg">
</g>
<g xmlns="http://www.w3.org/2000/svg">
</g>
<g xmlns="http://www.w3.org/2000/svg">
</g>
<g xmlns="http://www.w3.org/2000/svg">
</g>
<g xmlns="http://www.w3.org/2000/svg">
</g>
<g xmlns="http://www.w3.org/2000/svg">
</g>
<g xmlns="http://www.w3.org/2000/svg">
</g>
<g xmlns="http://www.w3.org/2000/svg">
</g>
</g></svg>
